<?xml version="1.0" standalone="no"?><!DOCTYPE svg PUBLIC "-//W3C//DTD SVG 1.1//EN" "http://www.w3.org/Graphics/SVG/1.1/DTD/svg11.dtd"><svg t="1768655152874" class="icon" viewBox="0 0 1024 1024" version="1.1" xmlns="http://www.w3.org/2000/svg" p-id="1631" xmlns:xlink="http://www.w3.org/1999/xlink" width="200" height="200"><path d="M282.550272 655.7184C344.195072 500.5312 450.639872 358.7584 551.503872 288.9216a51.2 51.2 0 1 1 58.368 84.1728C523.855872 432.64 428.675072 562.2784 375.068672 700.5696c141.824 23.4496 306.3296-48.128 354.5088-163.6352 49.664-119.1424 30.1056-275.9168-39.1168-375.2448-17.2032 11.5712-34.56 22.016-52.3264 31.5904-45.2096 24.2176-73.3184 34.9696-153.6 62.0032-90.6752 30.5664-133.7344 51.5072-186.7776 97.6896-90.112 78.4896-84.8384 228.9152-15.2576 302.7456z m62.208 143.36c-9.984 44.6464-14.4896 88.576-11.776 129.9968a51.2 51.2 0 1 1-102.144 6.656c-3.6864-56.32 3.072-115.6096 17.7664-174.848C102.428672 661.7088 80.310272 406.6304 230.479872 275.7632 296.015872 218.7776 349.571072 192.768 451.868672 158.2592c74.8032-25.1904 99.4816-34.6624 137.9328-55.296a520.2944 520.2944 0 0 0 77.7216-51.2 51.2 51.2 0 0 1 68.5056 4.5056c120.1664 123.8016 159.488 348.8768 88.064 520.0896-69.5808 166.912-290.304 260.4544-479.3344 222.72z" fill="#15D49F" p-id="1632"></path><path d="M705.871872 91.9552c103.5264 106.6496 142.4896 309.1456 77.568 464.7424-64.8704 155.5968-281.7024 230.6048-444.416 187.0336C176.463872 700.16 126.236672 440.32 270.825472 314.368c144.5376-125.952 270.4896-92.16 435.0976-222.464z" fill="#15D49F" fill-opacity=".3" p-id="1633"></path></svg>